<svg xmlns="http://www.w3.org/2000/svg" width="900.554" height="598.932" viewBox="0 0 900.554 598.932">
  <g id="Layer_2" data-name="Layer 2" transform="translate(0 -0.047)">
    <g id="Layer_1" data-name="Layer 1" transform="translate(0 0.5)">
      <path id="Path_1" data-name="Path 1" d="M591.927,591.874c29.242-9.142,55.479-18.481,87.043-36.207,32.554-18.283,177.164-105.291,195.969-255.875a287.234,287.234,0,0,0-11.985-122.656c-5.812-17.042-17.869-51.269-48.3-85.118C777.405,50.557,734.9,34.487,709.977,25.4,657.538,6.27,613.558,7.278,592.611,7.962c-22.6.738-62.5,2.393-107.846,22.206-29.584,12.921-47.975,27.659-75.076,49.685-42.937,34.929-48.587,49.469-123.7,121.594-20.623,19.795-37.574,35.4-63.451,50.765-17.941,10.653-32.446,16.61-59.2,27.479-65.773,26.723-84.5,32.134-106.022,47.178-41.857,29.278-39.146,61.208-40.945,68.082a135.193,135.193,0,0,0-3.185,53.932C18.669,485,38.122,508.609,50.2,522.9a203.524,203.524,0,0,0,59.2,47.58,378.359,378.359,0,0,0,48.515,21.4Z" transform="translate(9.447 5.238)" fill="#edeeef"/>
      <path id="Path_2" data-name="Path 2" d="M273.122,23.924C320.353,3.3,361.9,1.561,385.46.8c21.8-.709,67.616-1.755,122.251,18.172,25.96,9.468,70.23,26.207,109.035,69.386,31.686,35.257,44.245,70.914,50.3,88.66a299.289,299.289,0,0,1,12.482,127.758C659.946,461.632,509.311,552.251,475.4,571.3" transform="translate(218.37 -0.5)" fill="none" stroke="#6a9977" stroke-miterlimit="10" stroke-width="1"/>
      <path id="Path_3" data-name="Path 3" d="M377.071,374.111H315.113l-8.152-95.175h78.262Z" transform="translate(245.425 222.118)" fill="#fff2cb"/>
      <path id="Path_4" data-name="Path 4" d="M311.491,374.511c4.81-15.977,9.808-31.894,14.834-47.8,2.479-7.965,5.079-15.89,7.623-23.834l7.667-23.819a.9.9,0,0,1,1.709,0l7.669,23.818c2.541,7.944,5.147,15.868,7.624,23.833l7.506,23.871,7.325,23.93-8.164-23.657L357.3,327.138c-2.686-7.9-5.243-15.836-7.865-23.755l-7.821-23.769h1.709L335.5,303.383c-2.62,7.919-5.182,15.856-7.867,23.754C322.335,342.955,317.007,358.764,311.491,374.511Z" transform="translate(249.047 221.718)" fill="#902c24"/>
      <path id="Path_5" data-name="Path 5" d="M306.961,278.936c6.865,15.721,13.548,31.518,20.2,47.326l9.9,23.745,9.858,23.763h-1.662l9.857-23.763c3.3-7.915,6.538-15.856,9.9-23.746l10.015-23.7,10.191-23.626L375.848,302.9,366.3,326.787c-3.16,7.973-6.444,15.894-9.665,23.842l-9.709,23.824a.9.9,0,0,1-1.663,0l-9.708-23.825-9.664-23.843C319.5,310.869,313.139,294.939,306.961,278.936Z" transform="translate(245.425 222.118)" fill="#902c24"/>
      <path id="Path_6" data-name="Path 6" d="M309.226,308.5c5.843-.371,11.685-.545,17.527-.689,5.842-.164,11.685-.188,17.527-.21,5.842.02,11.685.044,17.527.207l8.764.251c2.921.149,5.843.237,8.764.441-2.921.2-5.843.291-8.764.441l-8.764.251c-5.842.163-11.685.187-17.527.207-5.843-.023-11.685-.046-17.527-.21C320.91,309.044,315.067,308.869,309.226,308.5Z" transform="translate(247.236 245.036)" fill="#902c24"/>
      <rect id="Rectangle_2" data-name="Rectangle 2" width="85.073" height="8.602" rx="1.291" transform="translate(548.979 492.453)" fill="#902c24"/>
      <rect id="Rectangle_3" data-name="Rectangle 3" width="30.54" height="30.54" rx="4.423" transform="translate(395.161 24.848)" fill="#dc6258"/>
      <path id="Path_7" data-name="Path 7" d="M187.484,432.192h-12.37l50.133-225.337,25.255,6.8Z" transform="translate(140.009 164.487)" fill="#dc6258"/>
      <path id="Path_8" data-name="Path 8" d="M303,432.192h12.368L265.241,206.855l-25.255,6.8Z" transform="translate(191.876 164.487)" fill="#dc6258"/>
      <rect id="Rectangle_4" data-name="Rectangle 4" width="427.7" height="359.417" rx="2.949" transform="translate(196.176 42.877)" fill="#fff2cb"/>
      <path id="Path_9" data-name="Path 9" d="M323.844,63.108a1.932,1.932,0,0,1-.14-3.859l35.433-2.605a1.932,1.932,0,1,1,.283,3.854L323.988,63.1C323.939,63.106,323.89,63.108,323.844,63.108Zm35.435,9.925H323.845a1.932,1.932,0,0,1,0-3.865h35.433a1.932,1.932,0,1,1,0,3.865Zm0,12.529H323.845a1.932,1.932,0,1,1,0-3.865h35.433a1.932,1.932,0,1,1,0,3.865Zm0,8.421H323.845a1.932,1.932,0,0,1,0-3.865h35.433a1.932,1.932,0,1,1,0,3.865ZM155.865,302.094a1.933,1.933,0,0,1-1.932-1.932V58.57a1.932,1.932,0,1,1,3.865,0V300.161a1.933,1.933,0,0,1-1.933,1.933Z" transform="translate(123.074 44.384)" fill="#902c24"/>
      <path id="Path_10" data-name="Path 10" d="M478.554,262.425H132.582a1.932,1.932,0,1,1,0-3.865H478.554a1.932,1.932,0,0,1,0,3.865ZM192.436,238.932a1.933,1.933,0,0,1-1.608-3l34.717-52.259a1.972,1.972,0,0,1,1.743-.859A1.933,1.933,0,0,1,228.9,183.9l17.447,36.289,47.319-94.568a1.9,1.9,0,0,1,1.918-1.059,1.932,1.932,0,0,1,1.674,1.412l16.718,60.961,14.453-25.549a1.933,1.933,0,0,1,3.455.182l19.6,45.175,13.92-39.08a1.93,1.93,0,0,1,1.613-1.273,1.909,1.909,0,0,1,1.848.9L382.6,189.358l48.734-97.139a1.932,1.932,0,0,1,3.541.2l9.285,25.241,32.688-61.292a1.933,1.933,0,1,1,3.41,1.819l-34.717,65.1a1.933,1.933,0,0,1-3.519-.242l-9.234-25.1-48.279,96.231a1.933,1.933,0,0,1-1.639,1.064,1.981,1.981,0,0,1-1.729-.909L367.7,172.735l-14.22,39.923a1.932,1.932,0,0,1-3.593.121l-20-46.109-14.849,26.25a1.933,1.933,0,0,1-3.546-.44l-16.623-60.614-46.825,93.579a2.058,2.058,0,0,1-1.744,1.068,1.933,1.933,0,0,1-1.727-1.1L226.886,188.64l-32.838,49.43A1.93,1.93,0,0,1,192.436,238.932Zm-51.476-28.8a1.933,1.933,0,0,1-1.932-1.932V93.085a1.932,1.932,0,1,1,3.865,0V208.2a1.933,1.933,0,0,1-1.932,1.932Zm262.176,82.523h-.028l-180.767-2.547a1.933,1.933,0,0,1-1.905-1.96,1.962,1.962,0,0,1,1.96-1.905l180.767,2.547a1.933,1.933,0,0,1-.026,3.865Z" transform="translate(104.458 43.349)" fill="#902c24"/>
      <rect id="Rectangle_5" data-name="Rectangle 5" width="142.494" height="19.451" rx="2.285" transform="translate(339.868 388.922)" fill="#dc6258"/>
      <path id="Path_11" data-name="Path 11" d="M49.825,258.593c4.34,3.372,11.986,11.381,12.192,17.387,0,0,14.052-15.279,10.057-28.347a24.4,24.4,0,0,0-11.159-11.24s5.51-3.091,11.3,4.5c0,0-2.066-20.514-30.652-13.067,0,0-11.159-22.762-33.27-1.265,0,0,14.879-1.9,11.985,2.74a43.249,43.249,0,0,0-14.844,7.494A14.873,14.873,0,0,0,.437,247.177c-.344,5.55-.872,16.532.207,16.685,1.446.211,10.952-8.43,17.358-7.8s-14.672,19.6-14.672,19.6,4.34,16.439,6.2,16.228,8.61-4.918,5.855,0l-4.753,3.794,6.2,8.571L32.4,297.372s-6.888-18.827-.551-13.7c0,0,4.821,6.393,4.89,11.17,0,0,20.837-9.062,18.771-15.28a139.651,139.651,0,0,0-7.875-16.8,7.105,7.105,0,0,1-.861-2.974C46.7,258.206,47.116,256.486,49.825,258.593Zm-2.56-21.825c1.952-1.347,6.751-.48,8.553,3.91,1.929,4.7,1.848,9.929-.1,11.275s-7.5-.41-8.886-4.953c-1.538-5.058-1.515-8.887.436-10.233Z" transform="translate(0 172.855)" fill="#369d52"/>
      <path id="Path_12" data-name="Path 12" d="M34.045,223.157a77.167,77.167,0,0,0-6.15,8,46.849,46.849,0,0,0-4.358,9.024,100.578,100.578,0,0,0-2.871,9.642c-.831,3.268-1.626,6.532-2.288,9.829-.7,3.287-1.315,6.6-1.816,9.918s-.814,6.665-1.223,10.025A56.041,56.041,0,0,1,9.4,298.919a67.388,67.388,0,0,0,3.3-9.535,53.755,53.755,0,0,0,1.754-9.888,156.692,156.692,0,0,1,2.792-20.087c.7-3.311,1.536-6.6,2.4-9.857a80.743,80.743,0,0,1,3.061-9.7,46.988,46.988,0,0,1,4.717-9.02,66.888,66.888,0,0,1,6.62-7.681Z" transform="translate(7.515 177.521)" fill="#34a853"/>
      <path id="Path_13" data-name="Path 13" d="M29.884,229.108a48,48,0,0,0-6.689,1.926c-2.174.79-4.323,1.647-6.408,2.65-4.229,1.888-8.241,4.211-12.334,6.493.894-.757,1.827-1.466,2.752-2.19.969-.658,1.922-1.344,2.914-1.973a60.476,60.476,0,0,1,6.185-3.382,50.582,50.582,0,0,1,6.623-2.443,26.174,26.174,0,0,1,6.957-1.08ZM20.466,261.7c-1.6,1.241-3.268,2.257-4.9,3.317q-1.223.785-2.39,1.622A6.564,6.564,0,0,0,11.2,268.7a4.319,4.319,0,0,1,1.374-2.73,13.916,13.916,0,0,1,2.364-1.921A17.036,17.036,0,0,1,20.466,261.7Zm3.192-15.012a54.979,54.979,0,0,1,5.266,5.68,66.663,66.663,0,0,1,4.532,6.3,44.564,44.564,0,0,1,3.538,6.937,21.116,21.116,0,0,1,1.626,7.584,29.894,29.894,0,0,0-2.446-7.233,55.108,55.108,0,0,0-3.7-6.676c-1.3-2.2-2.779-4.285-4.255-6.378S25.207,248.755,23.658,246.691Z" transform="translate(3.561 182.279)" fill="#34a853"/>
      <path id="Path_14" data-name="Path 14" d="M4.53,283.321l5.786,5.339s5.648-5.971,6.268-1.827c0,0-.9,4.145-2,4.5,0,0,13.845,11.135,16.635,1.967a88.435,88.435,0,0,1,4.236-12.013s3.1,1.686.413,14.964c0,0,10.715-3.149,14.694-8.925a4.132,4.132,0,0,0,.7-2.3c.038-3.3.474-12.6,4.237-9.108,0,0,2.17,1.054.517,8.114,0,0,8.72-9.831,4.578-15.873A6.042,6.042,0,0,0,53.19,266.2c-2.422,1.051-6.915,2.987-15.252,6.553A166.381,166.381,0,0,1,4.53,283.321Z" transform="translate(3.622 211.494)" fill="#369d52"/>
      <path id="Path_15" data-name="Path 15" d="M15.125,325.511a33.04,33.04,0,0,1,2.848-8.756,21.273,21.273,0,0,1,2.446-3.964,9.462,9.462,0,0,1,1.681-1.667,3.524,3.524,0,0,1,2.2-.787,6.33,6.33,0,0,0-3.148,2.984,40.18,40.18,0,0,0-2.139,3.944C17.685,319.968,16.5,322.754,15.125,325.511Zm18.819-4.355a27.488,27.488,0,0,1,.734-8.1,20.767,20.767,0,0,1,1.353-3.884,6.1,6.1,0,0,1,2.735-3.054,8.3,8.3,0,0,0-1.9,3.4c-.4,1.249-.751,2.521-1.062,3.809C35.176,315.912,34.656,318.527,33.944,321.156Zm96.3-95.712s-13.914,2-1.515,11.832c0,0,3.169,2.67,13.5,5.761C142.227,243.036,148.7,214.876,130.242,225.444Z" transform="translate(12.093 177.453)" fill="#34a853"/>
      <path id="Path_16" data-name="Path 16" d="M91.081,241.982c-.258-.922-.426-1.846-.658-2.754-.29-.893-.5-1.8-.816-2.673a25.9,25.9,0,0,0-2.327-4.99,19.624,19.624,0,0,0-3.508-4.186A16.636,16.636,0,0,0,79.1,224.39a11.77,11.77,0,0,1,5.245,2.285,15.926,15.926,0,0,1,3.923,4.279,19.4,19.4,0,0,1,2.207,5.346c.253.927.348,1.889.507,2.828C91.025,240.084,91.083,241.036,91.081,241.982Z" transform="translate(63.239 178.507)" fill="#1a662e"/>
      <path id="Path_17" data-name="Path 17" d="M83.11,196.342s15.426-9.828,20.047,11.995c0,0-8.006-6.891-8.112-2.9a30.555,30.555,0,0,1,5.807,10.347,11.329,11.329,0,0,1-1.116,8.365c-1.961,3.569-5.923,10.578-6.619,10.261-.932-.425-3.153-9.434-7.164-11.5s.987,17.789.987,17.789-8.955,8.527-9.966,7.682-3.146-6.354-3.442-2.248l1.316,4.177-6.983,2.933L61.4,242.987s11.383-9.029,5.661-8.283c0,0-5.325,2.112-7.226,5.048,0,0-8.716-13.623-5.079-16.684a103.224,103.224,0,0,1,11.147-7.38,5.224,5.224,0,0,0,1.9-1.851c.513-.884.613-1.825-1.534-1.59-3.864.424-11.478,2.454-13.94,6.1,0,0-2.306-14.872,5.133-21.44A17.177,17.177,0,0,1,68.4,194.222s-2.034-4.033-8.391-1.551C60,192.671,69.211,180.745,83.11,196.342Z" transform="translate(41.566 149.661)" fill="#34a853"/>
      <path id="Path_18" data-name="Path 18" d="M87.2,213.353c-1.259-3.069-2.44-6.109-3.876-9.01a26.191,26.191,0,0,0-2.5-4.094,6.355,6.355,0,0,0-3.843-2.655,5.609,5.609,0,0,1,4.521,2.056,17.841,17.841,0,0,1,2.854,4.174,29.839,29.839,0,0,1,2.84,9.529Zm-31.686,7.342a23.192,23.192,0,0,1,2.949-4.769,22.157,22.157,0,0,1,4-4,14.713,14.713,0,0,1,5.079-2.607,9.784,9.784,0,0,1,5.623.182,12.81,12.81,0,0,0-5.353.681,17.8,17.8,0,0,0-4.644,2.664,32.2,32.2,0,0,0-4.024,3.668C57.9,217.852,56.67,219.23,55.516,220.695Z" transform="translate(44.387 157.081)" fill="#1a662e"/>
      <path id="Path_19" data-name="Path 19" d="M65.748,195.181a7.142,7.142,0,0,1,4.763-2.8,11.185,11.185,0,0,1,2.852-.076,15.964,15.964,0,0,1,2.794.575l.339.1-.139.35c-1.8,4.552-3.333,9.228-4.845,13.893-1.48,4.68-2.812,9.4-4.117,14.137q-1.882,7.119-3.523,14.3c-1.1,4.788-2.069,9.606-3.06,14.429.605-4.884,1.333-9.759,2.286-14.591.867-4.851,2.045-9.639,3.239-14.42s2.636-9.5,4.177-14.181,3.247-9.307,5.24-13.833l.2.445-1.316-.392c-.448-.085-.893-.2-1.344-.271a10.733,10.733,0,0,0-2.732-.088,7.209,7.209,0,0,0-4.814,2.425Z" transform="translate(48.621 152.809)" fill="#1a662e"/>
      <path id="Path_20" data-name="Path 20" d="M68.825,220.671a25.556,25.556,0,0,0-1.848-4.872,4.387,4.387,0,0,0-1.581-1.7,5.372,5.372,0,0,0-2.468-.46,3.637,3.637,0,0,1,2.816-.376,4.2,4.2,0,0,1,2.234,1.956A8.181,8.181,0,0,1,68.825,220.671Z" transform="translate(50.313 169.505)" fill="#1a662e"/>
      <path id="Path_21" data-name="Path 21" d="M44.615,282.553s-2.742-9.466-9.7-4.114a13.97,13.97,0,0,0-4.824,7.4c-1.255,4.531-2.341,12.741.752,24.392,0,0,7.127-9.859,12.4-13.348C49.184,292.951,53.019,283.958,44.615,282.553Z" transform="translate(23.051 220.411)" fill="#ceb56e"/>
      <path id="Path_22" data-name="Path 22" d="M43.723,341.749a11.931,11.931,0,0,0-2.7,2.781,27.189,27.189,0,0,0-2.132,3.242,62,62,0,0,0-3.432,6.981c-1.052,2.38-1.958,4.823-2.859,7.275l-2.65,7.4c.226-1.3.526-2.574.787-3.866.3-1.28.679-2.54,1.016-3.814.732-2.53,1.658-5,2.642-7.453a49.17,49.17,0,0,1,3.743-7,15.867,15.867,0,0,1,5.588-5.551ZM53.77,210.25s.232-9.868-8-6.948a13.73,13.73,0,0,0-6.815,5.539c-2.556,3.921-6.054,11.4-6.61,23.455,0,0,9.745-7.16,15.811-8.833C55,221.574,61.348,214.213,53.77,210.25Z" transform="translate(23.943 161.215)" fill="#369d52"/>
      <path id="Path_23" data-name="Path 23" d="M52.705,206.923a11.726,11.726,0,0,0-3.411,1.8,26.744,26.744,0,0,0-3.005,2.42,61.009,61.009,0,0,0-5.364,5.574c-1.715,1.938-3.312,3.98-4.9,6.032l-4.743,6.217c.6-1.161,1.273-2.283,1.909-3.429.672-1.122,1.408-2.2,2.111-3.31a78.071,78.071,0,0,1,4.752-6.268,48.428,48.428,0,0,1,5.667-5.494,15.613,15.613,0,0,1,6.988-3.544Z" transform="translate(25.008 164.542)" fill="#34a853"/>
      <path id="Path_24" data-name="Path 24" d="M79.881,282.553s2.742-9.466,9.7-4.115a13.971,13.971,0,0,1,4.824,7.4c1.255,4.531,2.341,12.741-.752,24.392,0,0-7.127-9.859-12.4-13.348C75.312,292.951,71.477,283.959,79.881,282.553Z" transform="translate(59.979 220.41)" fill="#369d52"/>
      <path id="Path_25" data-name="Path 25" d="M77.72,280a15.869,15.869,0,0,1,5.588,5.552,49.163,49.163,0,0,1,3.743,7A79.041,79.041,0,0,1,89.693,300c.337,1.274.713,2.534,1.016,3.814.262,1.291.561,2.57.788,3.866l-2.65-7.4c-.9-2.452-1.807-4.895-2.859-7.275a62,62,0,0,0-3.432-6.981,27.177,27.177,0,0,0-2.132-3.242A11.931,11.931,0,0,0,77.72,280Z" transform="translate(62.14 222.967)" fill="#34a853"/>
      <path id="Path_26" data-name="Path 26" d="M114.234,239.918S79.573,210.3,70.59,383.332M81.331,239.918S64.088,354.037,74.42,383.332m-6.574,0S55.031,331.9,39.566,339.985m30.122,28.01s11.168-191.06-20.075-159.509M83.479,383.33s12.815-51.426,28.281-43.345m-76.613-24.4s24.257-5.951,37.483,66.549M43.137,270.665s7.028,4.689,33.621,111.471m32.805-87.244S83.3,336.473,80.856,383.331" transform="translate(28.101 162.979)" fill="none" stroke="#1a662e" stroke-miterlimit="10" stroke-width="0.644"/>
      <path id="Path_27" data-name="Path 27" d="M37.679,298.76v9.621a3.334,3.334,0,0,0,3.3,3.367h66.138a3.334,3.334,0,0,0,3.3-3.367v-8.866a3.335,3.335,0,0,0-3.264-3.366l-66.138-.755a3.333,3.333,0,0,0-3.338,3.367Z" transform="translate(30.125 235.276)" fill="#4285f4"/>
      <path id="Path_28" data-name="Path 28" d="M39.433,304.481l2.352,49.656h60.166l3.909-49.656Z" transform="translate(31.528 242.542)" fill="#97b5e7"/>
      <path id="Path_29" data-name="Path 29" d="M92.683,262.576c.092-4.531,9.46,3.688,9.46,3.688-5.58-25.045-23.409-14.6-23.409-14.6-16.3-18.406-26.887-5.28-26.887-5.28,7.359-2.518,9.758,2.166,9.758,2.166a19.593,19.593,0,0,0-12.686,2.529c-8.576,7.119-5.763,24.143-5.763,24.143,2.824-4.028,11.664-5.971,16.141-6.276,2.813-.188,2.319,1.194,1.562,2.248a5.689,5.689,0,0,1-1.917,1.639,112.488,112.488,0,0,0-12.915,7.88c-4.2,3.3,6.061,19.214,6.061,19.214,2.181-3.243,8.346-5.4,8.346-5.4,6.647-.574-6.5,9.156-6.5,9.156l7.611,11.966,8.094-3.009-1.573-4.812c.31-4.66,2.836,1.709,4.018,2.716S83.6,302.291,83.6,302.291s-5.992-22.832-1.32-20.279S89.629,294.9,90.72,295.43c.815.4,5.35-7.388,7.6-11.357a12.415,12.415,0,0,0,1.217-9.449,36.912,36.912,0,0,0-6.854-12.048Zm-26.141-.187c-2.985,2.47-7.577,1.1-8.312-.738s1.538-5.468,4.959-7.786c3.2-2.178,6.888-.55,7.623,1.288s-.953,4.474-4.271,7.236Z" transform="translate(34.153 192.465)" fill="#34a853"/>
      <path id="Path_30" data-name="Path 30" d="M70.256,247.3a55.848,55.848,0,0,1,1.162,8.287,38.87,38.87,0,0,1-.745,8.375,64.629,64.629,0,0,1-2.211,8.1c-.861,2.646-1.753,5.3-2.75,7.906a126.644,126.644,0,0,1-7.107,15.148,44.036,44.036,0,0,0-3.246,7.606,56.66,56.66,0,0,0-2.042,8.064,45.627,45.627,0,0,1,4.493-16.074,144.033,144.033,0,0,0,6.822-15.163c1.021-2.575,1.937-5.188,2.83-7.82s1.709-5.267,2.342-7.948a38.744,38.744,0,0,0,1.049-8.184A66.8,66.8,0,0,0,70.256,247.3Z" transform="translate(42.629 196.826)" fill="#1a662e"/>
      <path id="Path_31" data-name="Path 31" d="M74.587,253.485a21.123,21.123,0,0,1,4.37,3.928,37.237,37.237,0,0,1,3.475,4.754,43.1,43.1,0,0,1,2.721,5.211,38.926,38.926,0,0,1,1.949,5.53l-2.762-5.131c-.94-1.687-1.873-3.372-2.9-5q-1.507-2.459-3.194-4.8a45.115,45.115,0,0,0-3.666-4.49Zm-8.1,26.763a12.811,12.811,0,0,1,2.84,4.128,11.038,11.038,0,0,1,.748,2.435,3.546,3.546,0,0,1-.354,2.546,5.942,5.942,0,0,0-.52-2.315c-.3-.735-.608-1.469-.935-2.2A38.044,38.044,0,0,1,66.485,280.248ZM71,268.455l-5.884,2.227c-1.943.763-3.877,1.537-5.76,2.413a51.4,51.4,0,0,0-5.521,2.844,25.1,25.1,0,0,0-4.954,3.761,16.419,16.419,0,0,1,4.457-4.517,32.047,32.047,0,0,1,5.539-3.143A45.549,45.549,0,0,1,71,268.455Z" transform="translate(39.084 201.77)" fill="#1a662e"/>
      <path id="Path_32" data-name="Path 32" d="M107.851,241.16s13.439-20.075,30.247,3.632c0,0-13.163-3.971-11.233.869a39.117,39.117,0,0,1,12.309,9.3,14.8,14.8,0,0,1,2.978,10.637c-.511,5.335-1.648,15.874-2.647,15.867-1.338-.009-8.652-9.629-14.534-9.957s10.366,20.817,10.366,20.817-6.345,15.04-7.995,14.568-7.055-5.936-5.29-.849l3.735,4.305-6.865,7.269-13.05-8.826s9-16.946,2.518-12.979c0,0-5.3,5.393-6.066,9.937,0,0-17.49-11.668-14.706-17.295a138.238,138.238,0,0,1,9.55-14.815,7.093,7.093,0,0,0,1.333-3.214c.174-1.356-.17-2.588-2.655-1.134-4.418,2.584-12.508,9.106-13.58,14.8,0,0-10.443-16.609-4.906-28.484a22.943,22.943,0,0,1,11.74-9.093s-4.523-3.748-10.87,2.643C78.229,249.159,83.121,229.906,107.851,241.16Z" transform="translate(60.557 185.57)" fill="#ceb56e"/>
      <path id="Path_33" data-name="Path 33" d="M93.584,237.634A145.4,145.4,0,0,1,99.4,256.183c1.577,6.294,2.8,12.676,3.752,19.094a191.391,191.391,0,0,1,1.8,19.377,166.562,166.562,0,0,1-.3,19.437c-.051-6.479-.084-12.944-.595-19.389q-.613-9.67-2.058-19.258c-.855-6.4-2.086-12.748-3.47-19.058S95.534,243.81,93.584,237.634Z" transform="translate(74.824 189.096)" fill="#369d52"/>
      <path id="Path_34" data-name="Path 34" d="M99.24,243.572a30.916,30.916,0,0,0-2.9,4.31,46.951,46.951,0,0,0-2.28,4.622c-.677,1.58-1.267,3.2-1.812,4.842s-1.023,3.314-1.537,5a27.624,27.624,0,0,1,.665-5.243,29.9,29.9,0,0,1,1.619-5.057,26.3,26.3,0,0,1,2.586-4.651,15.87,15.87,0,0,1,3.664-3.825Zm5.592,26.59a13.278,13.278,0,0,1,8.554,6.265,10.879,10.879,0,0,1,1.291,3.369,29.523,29.523,0,0,0-4.343-5.4,32.868,32.868,0,0,0-5.5-4.236Z" transform="translate(72.522 193.844)" fill="#369d52"/>
      <path id="Path_35" data-name="Path 35" d="M428.692,308.232l2.125,21.2-36.822,17.99h56.543V308.232Z" transform="translate(315.011 245.541)" fill="#f9847a"/>
      <path id="Path_36" data-name="Path 36" d="M394.97,308.232l2.125,21.2-36.822,17.99h56.543V308.232Z" transform="translate(288.05 245.541)" fill="#f9847a"/>
      <path id="Path_37" data-name="Path 37" d="M436.331,447.87h24.906a5.078,5.078,0,0,0,5.078-5.078V354.228a230.794,230.794,0,0,0-5.8-51.428h0a34.123,34.123,0,0,1-.819-9.228c1.085-22.8,5.141-122.817-6.229-141.009l-72.729-5.37,50.591,296.453a5.078,5.078,0,0,0,5.005,4.224Z" transform="translate(304.41 116.785)" fill="#c65f56"/>
      <path id="Path_38" data-name="Path 38" d="M369.274,145.1s-3.823,61.9-3.823,76.451V307.42q0,5.3.521,10.59L378.706,447.14a5.078,5.078,0,0,0,5.053,4.579h29.346a5.078,5.078,0,0,0,5.064-5.446L410.24,337.252a107.9,107.9,0,0,1,2-29.92l32.025-153.094Z" transform="translate(292.189 115.111)" fill="#c65f56"/>
      <path id="Path_39" data-name="Path 39" d="M359.316,104.819s-.267-6.985-11.009-18.045-20.374-18.618-14.781-9.3l4.38,7.031s-11.557-4.482-18.209-7.755a9.179,9.179,0,0,0-10.776,1.784c-2.506,2.7-2.43,5.658,4.482,10.9a88.076,88.076,0,0,0,20.946,12.378,5.23,5.23,0,0,1,2.591,2.165l7.726,6.289Z" transform="translate(245.788 57.686)" fill="#f9847a"/>
      <path id="Path_40" data-name="Path 40" d="M344.5,86.515a15.8,15.8,0,0,1-3.549-1.291,18.471,18.471,0,0,1-3.212-1.974,8.234,8.234,0,0,1,1.875.413,13.091,13.091,0,0,1,1.752.713A12.362,12.362,0,0,1,344.5,86.515Zm-15.965-2.14a39.111,39.111,0,0,1-4.3-1.738c-1.408-.639-2.772-1.367-4.114-2.136a39.182,39.182,0,0,1-3.885-2.545,21.3,21.3,0,0,1-3.453-3.112c2.537,1.769,5.158,3.3,7.812,4.84C323.233,81.236,325.91,82.724,328.53,84.375Zm-2.868,3.56a37.724,37.724,0,0,1-4.791-1.689,42.789,42.789,0,0,1-4.57-2.237,28.607,28.607,0,0,1-4.228-2.866,11.987,11.987,0,0,1-3.321-3.862,17.361,17.361,0,0,0,3.76,3.283c1.379.931,2.791,1.817,4.256,2.624C319.669,84.849,322.671,86.344,325.662,87.935ZM322.2,90.6a27.457,27.457,0,0,1-4.031-1.348,36.366,36.366,0,0,1-3.833-1.842,25.254,25.254,0,0,1-6.708-5.2c1.189.78,2.348,1.557,3.543,2.281,1.207.7,2.4,1.427,3.625,2.1Z" transform="translate(245.957 58.941)" fill="#dd685e"/>
      <path id="Path_41" data-name="Path 41" d="M430.3,71.091s-5.82,2.6-10.331,4.914C413.712,79.211,404,90.476,392.64,118.612l-7.551,18.7s-22.666-26.459-42.275-43.24l-19.354,15.7,44.8,51.6a31.654,31.654,0,0,0,11.223,9.885c10.228,5.227,20.672,3.5,26.406-7.126,8.969-16.628,19.631-41.944,20.651-49Z" transform="translate(258.615 55.94)" fill="#ffd355"/>
      <path id="Path_42" data-name="Path 42" d="M358.967,108.074c-.31,2.957-.809,5.739-.924,8.525a21.434,21.434,0,0,0,.106,4.119,13.483,13.483,0,0,0,1.2,4.031,7.25,7.25,0,0,1-2.572-3.712,12.478,12.478,0,0,1-.534-4.53,17.406,17.406,0,0,1,.819-4.409A14.845,14.845,0,0,1,358.967,108.074Z" transform="translate(284.808 85.509)" fill="#fbbc05"/>
      <path id="Path_43" data-name="Path 43" d="M406.088,159.045s0,30.606,33.77,22.6l-1.867-27.55Z" transform="translate(324.68 122.301)" fill="#a3342b"/>
      <path id="Path_44" data-name="Path 44" d="M357.12,341.909v-.129A5.355,5.355,0,0,1,360.065,337l38.219-19.262a1.785,1.785,0,0,1,2.23.522l7.471,9.943a1.785,1.785,0,0,0,2.345.458L419.1,323.4a1.785,1.785,0,0,1,2.7,1.53v16.98a1.785,1.785,0,0,1-1.785,1.785H358.9a1.785,1.785,0,0,1-1.783-1.785Z" transform="translate(285.529 252.988)" fill="#5d1711"/>
      <path id="Path_45" data-name="Path 45" d="M390.841,341.909v-.129A5.354,5.354,0,0,1,393.786,337L432,317.736a1.785,1.785,0,0,1,2.23.522l7.47,9.943a1.785,1.785,0,0,0,2.345.458l8.768-5.261a1.785,1.785,0,0,1,2.7,1.53v16.98a1.785,1.785,0,0,1-1.785,1.785H392.626a1.785,1.785,0,0,1-1.785-1.785Z" transform="translate(312.49 252.988)" fill="#5d1711"/>
      <path id="Path_46" data-name="Path 46" d="M411.313,31.143a32.951,32.951,0,0,0-15.391,1.319c-2.322.823-10.813,3.834-14.952,11.873-1.572,3.053-1.927,6.726-2.638,14.072-.444,4.588-2.211,7.875-2.209,13.471a47.276,47.276,0,0,0,2.209,13.354c2.058,6.765.733,10.609,1.759,11.873,4.136,5.1,13,.385,13.193,7.036.116,4.107-2.493,6.706.935,10.389,4.251,4.568,20.4,2.839,26.33-.275.809-.424,12.674-6.809,11.873-14.072-.428-3.88-4.06-4.281-6.6-10.114a23.29,23.29,0,0,1-1.319-12.753c1.144-8.49,5.422-9.526,8.8-19.789a15.964,15.964,0,0,0-2.638-15.391A32.609,32.609,0,0,0,411.313,31.143Z" transform="translate(300.722 23.7)" fill="#f9847a"/>
      <ellipse id="Ellipse_1" data-name="Ellipse 1" cx="1.724" cy="2.143" rx="1.724" ry="2.143" transform="translate(677.295 86.441)" fill="#070a08"/>
      <ellipse id="Ellipse_2" data-name="Ellipse 2" cx="1.724" cy="2.143" rx="1.724" ry="2.143" transform="translate(695.364 87.166)" fill="#070a08"/>
      <path id="Path_47" data-name="Path 47" d="M387.517,49.426a1.088,1.088,0,0,0,.642-1.966,11.556,11.556,0,0,0-12.885-.666,1.088,1.088,0,1,0,1.211,1.809,9.21,9.21,0,0,1,10.391.614A1.082,1.082,0,0,0,387.517,49.426Zm17.884.887a1.088,1.088,0,0,0,.642-1.967,11.555,11.555,0,0,0-12.884-.667,1.088,1.088,0,1,0,1.211,1.809,9.206,9.206,0,0,1,10.39.615,1.08,1.08,0,0,0,.641.21Z" transform="translate(299.658 35.195)" fill="#1d221e"/>
      <circle id="Ellipse_3" data-name="Ellipse 3" cx="2.872" cy="2.872" r="2.872" transform="translate(688.116 272.086)" fill="#5d1711"/>
      <path id="Path_48" data-name="Path 48" d="M383.966,48.242a8.537,8.537,0,0,1-.433,5.417,19.733,19.733,0,0,1-2.651,4.82c-.564.742-1.387,1.3-1.331,2.025a3.1,3.1,0,0,0,1.158,2.073,6.7,6.7,0,0,0,5.013,1.112,6.24,6.24,0,0,1-5.366-.68,3.457,3.457,0,0,1-1.464-2.5,2.112,2.112,0,0,1,.558-1.452l.87-1.037a21.65,21.65,0,0,0,2.7-4.588A9.726,9.726,0,0,0,383.966,48.242Zm31.846.725a4.526,4.526,0,0,1,3.539,1.452,7.973,7.973,0,0,1,1.173,1.561,6.978,6.978,0,0,1,.693,1.8,25.871,25.871,0,0,0-2.375-2.846,7.945,7.945,0,0,0-1.379-1.152,6.546,6.546,0,0,0-1.651-.816Z" transform="translate(302.935 37.672)" fill="#dd685e"/>
      <path id="Path_49" data-name="Path 49" d="M400.522,57.059a6.455,6.455,0,0,1,1.3-7.756c-.275.645-.581,1.238-.779,1.872a8.894,8.894,0,0,0-.479,1.9A13.218,13.218,0,0,0,400.522,57.059Z" transform="translate(319.625 38.52)" fill="#dd685e"/>
      <path id="Path_50" data-name="Path 50" d="M367.448,144.033a127.985,127.985,0,0,1-.573-19.228,97.776,97.776,0,0,1,2.406-19.094c-.137,6.43-.366,12.783-.609,19.166C368.393,131.255,368.121,137.632,367.448,144.033Z" transform="translate(293.223 83.62)" fill="#fbbc05"/>
      <path id="Path_51" data-name="Path 51" d="M392.389,61.036s-6.79,6.333-12.861,0" transform="translate(303.445 47.901)" fill="#070a08"/>
      <path id="Path_52" data-name="Path 52" d="M402.653,51.31a15.409,15.409,0,0,0-4.743-1.475,9.546,9.546,0,0,0-2.448-.081,16.1,16.1,0,0,0-2.482.4,7.032,7.032,0,0,1,2.405-.955,8.109,8.109,0,0,1,2.621-.084,8.381,8.381,0,0,1,4.646,2.193Zm-17.76-.725a15.4,15.4,0,0,0-4.743-1.475,9.548,9.548,0,0,0-2.448-.081,16.107,16.107,0,0,0-2.482.4,7.031,7.031,0,0,1,2.405-.955,8.1,8.1,0,0,1,2.621-.084,8.382,8.382,0,0,1,4.646,2.193Z" transform="translate(300.001 37.736)" fill="#1d221e"/>
      <path id="Path_53" data-name="Path 53" d="M367.052,149.925a48.288,48.288,0,0,0,11.4,5.385,93.264,93.264,0,0,0,12.171,3.281,143.633,143.633,0,0,0,25.046,2.861c4.2.318,8.42.155,12.633.217,4.214-.081,8.424-.363,12.642-.488,4.206-.337,8.422-.614,12.629-1,4.2-.437,8.4-.936,12.623-1.321-4.158.788-8.34,1.461-12.517,2.2-4.2.566-8.418,1-12.631,1.506-4.227.344-8.469.577-12.71.745-4.247-.009-8.5.215-12.745-.059a132.316,132.316,0,0,1-25.272-3.312C382.114,157.9,373.788,155.163,367.052,149.925Z" transform="translate(293.47 118.97)" fill="#5d1711"/>
      <path id="Path_54" data-name="Path 54" d="M389.079,161.229c2.106,10.185,4.018,20.4,5.9,30.625s3.613,20.471,5.427,30.705c1.671,10.259,3.418,20.5,5.017,30.775l2.363,15.412c.723,5.149,1.506,10.287,2.175,15.444-1.071-5.089-2.028-10.2-3.045-15.3l-2.858-15.329c-1.881-10.223-3.615-20.471-5.424-30.705-1.666-10.259-3.42-20.5-5.014-30.776S390.454,171.537,389.079,161.229Zm-14.531-12.724a16.911,16.911,0,0,1,.9,5.744,16.727,16.727,0,0,1-.9,5.745,16.725,16.725,0,0,1-.9-5.745,16.916,16.916,0,0,1,.9-5.744Zm43.9,4.684a22.266,22.266,0,0,1,1.673,6.474,22.015,22.015,0,0,1-.114,6.686,22.016,22.016,0,0,1-1.673-6.474,22.264,22.264,0,0,1,.113-6.686Z" transform="translate(298.741 117.835)" fill="#5d1711"/>
      <path id="Path_55" data-name="Path 55" d="M393.006,156.167a116.177,116.177,0,0,1,2.9,12.275c.759,4.126,1.384,8.274,1.838,12.45l.046.427-.3.2c-1.959,1.308-3.961,2.559-6.025,3.727,1.692-1.662,3.446-3.243,5.243-4.765l-.25.624c-.911-4.1-1.651-8.23-2.257-12.381a116.22,116.22,0,0,1-1.2-12.555Zm65.188,66.295a45.544,45.544,0,0,1-1.133,9.041,49.719,49.719,0,0,1-2.745,8.735,35.905,35.905,0,0,1-4.575,7.988,21.173,21.173,0,0,1-6.965,5.921,31.511,31.511,0,0,0,5.821-6.735,51.41,51.41,0,0,0,4.063-7.874,88.3,88.3,0,0,0,3.05-8.4C456.585,228.283,457.451,225.4,458.194,222.462Zm0,20.891a28.652,28.652,0,0,1-2.231,6.185,39.094,39.094,0,0,1-3.365,5.671,26.934,26.934,0,0,1-9.821,8.686c1.546-1.573,3.05-3.077,4.432-4.708,1.361-1.641,2.713-3.28,3.931-5.03C453.641,250.7,455.881,247.074,458.194,243.352Zm-65.714,83.3a45.574,45.574,0,0,1-1.133,9.041,49.711,49.711,0,0,1-2.745,8.735,35.9,35.9,0,0,1-4.575,7.988,21.172,21.172,0,0,1-6.965,5.921,31.493,31.493,0,0,0,5.821-6.735,51.386,51.386,0,0,0,4.062-7.874,88.231,88.231,0,0,0,3.05-8.4C390.871,332.478,391.735,329.6,392.48,326.656Zm0,20.891a28.674,28.674,0,0,1-2.231,6.186,39.136,39.136,0,0,1-3.366,5.671,26.931,26.931,0,0,1-9.821,8.686c1.546-1.573,3.05-3.077,4.432-4.708,1.361-1.641,2.713-3.28,3.931-5.03C387.927,354.9,390.168,351.269,392.48,347.547ZM423.272,181a48.827,48.827,0,0,0-.1,10.635,15.171,15.171,0,0,0,3.764,9.212c2.322,2.359,5.916,2.892,9.34,2.684a49.455,49.455,0,0,0,10.4-2.17,31.633,31.633,0,0,1-10.258,3.567,16.632,16.632,0,0,1-5.613-.116,10.434,10.434,0,0,1-5.121-2.673,15.278,15.278,0,0,1-3.907-10.392A31.529,31.529,0,0,1,423.272,181Z" transform="translate(301.473 123.961)" fill="#5d1711"/>
      <path id="Path_56" data-name="Path 56" d="M403.276,76.134s4.091,20.7,33.114-9.638l28,17.327a40.247,40.247,0,0,1,14.677,16.527,202.772,202.772,0,0,1,19.081,74.612s3.958,26.062-34.741,77.455c0,0-20.229,3.9-25.066-17.648l12.425-17.15s-65.635,6.157-82.786-9.675c0,0-8.978-112.2,29.024-134.565Z" transform="translate(293.478 52.266)" fill="#ffd355"/>
      <path id="Path_57" data-name="Path 57" d="M414.786,98.179q1.158,7.329,2.148,14.676c.636,4.9,1.334,9.795,1.92,14.7l1.749,14.72c.609,4.9,1.058,9.826,1.595,14.738l.009.081-.006.068a132.307,132.307,0,0,1-2.773,17.97,71.185,71.185,0,0,1-5.85,17.153,89.168,89.168,0,0,0,4.728-17.38c.535-2.956.961-5.932,1.321-8.913.392-2.973.723-5.972.935-8.945l0,.148c-.563-4.909-1.213-9.809-1.7-14.726l-1.548-14.743c-.513-4.915-.915-9.842-1.378-14.762Q415.285,105.581,414.786,98.179Z" transform="translate(330.669 77.597)" fill="#fbbc05"/>
      <path id="Path_58" data-name="Path 58" d="M435.666,121.157a28.683,28.683,0,0,1,5.144,5.6A28.375,28.375,0,0,1,444.5,133.4a28.358,28.358,0,0,1-5.144-5.6,28.688,28.688,0,0,1-3.685-6.649Zm13.513,54.089c2.006-.021,3.785.185,5.568.257.887.05,1.758.041,2.649.032.886-.051,1.764-.148,2.777-.289a5.432,5.432,0,0,1-2.513,1.669,8.982,8.982,0,0,1-3,.385,10.479,10.479,0,0,1-2.909-.588,7.616,7.616,0,0,1-2.576-1.466ZM400.1,75.489c-1.792,5.4-3.51,10.823-5.027,16.3q-2.395,8.182-4.416,16.462c-2.714,11.03-5.087,22.14-6.864,33.349a306.426,306.426,0,0,0-3.569,33.827c-.1,5.668-.362,11.346.01,17.013-.018,5.694.846,11.313,1.31,16.995a174.8,174.8,0,0,1-2.7-34.051,276.241,276.241,0,0,1,3.178-34.07c1.935-11.244,4.294-22.415,7.306-33.412A291.61,291.61,0,0,1,400.1,75.489Z" transform="translate(302.874 59.456)" fill="#fbbc05"/>
      <path id="Path_59" data-name="Path 59" d="M385.119,71.144c-.67,3-1.277,6.017-1.67,9.053a28.032,28.032,0,0,0-.1,8.971c.321,1.437,1.153,2.438,2.408,2.082a10.28,10.28,0,0,0,3.68-2.029,54.339,54.339,0,0,0,6.455-6.36l1.322-1.479.147,2.013a15,15,0,0,0,1.577,5.935,5.681,5.681,0,0,0,4.389,3.27,11.162,11.162,0,0,0,5.844-1.431,31.443,31.443,0,0,0,5.386-3.481,146.014,146.014,0,0,0,18.618-18.4c-2.611,3.53-5.3,7.016-8.222,10.312A85.714,85.714,0,0,1,415.5,88.9a32.976,32.976,0,0,1-5.6,3.728,12.718,12.718,0,0,1-6.754,1.693,7.292,7.292,0,0,1-5.783-4.15,16.635,16.635,0,0,1-1.689-6.718l1.469.534a55.8,55.8,0,0,1-6.768,6.468,10.387,10.387,0,0,1-4.412,2.192,2.911,2.911,0,0,1-2.681-.83,4.614,4.614,0,0,1-1.11-2.372,17.309,17.309,0,0,1-.134-4.758,38.231,38.231,0,0,1,.685-4.606,75.515,75.515,0,0,1,2.4-8.932Z" transform="translate(305.369 54.5)" fill="#fbbc05"/>
      <circle id="Ellipse_4" data-name="Ellipse 4" cx="1.837" cy="1.837" r="1.837" transform="translate(693.872 170.121)" fill="#5d1711"/>
      <circle id="Ellipse_5" data-name="Ellipse 5" cx="1.837" cy="1.837" r="1.837" transform="translate(699.386 148.782)" fill="#5d1711"/>
      <circle id="Ellipse_6" data-name="Ellipse 6" cx="1.837" cy="1.837" r="1.837" transform="translate(689.291 195.138)" fill="#5d1711"/>
      <circle id="Ellipse_7" data-name="Ellipse 7" cx="1.837" cy="1.837" r="1.837" transform="translate(685.528 221.539)" fill="#5d1711"/>
      <circle id="Ellipse_8" data-name="Ellipse 8" cx="1.837" cy="1.837" r="1.837" transform="translate(684.374 250.446)" fill="#5d1711"/>
      <path id="Path_60" data-name="Path 60" d="M392.149,106.577s12.171.225,19.13-9.449c3.318-4.612,3.326-13.944,3-19.372a16.791,16.791,0,0,1,1.122-7.139c1.23-3.137,2.74-7.411,5.808-7.7,2.261-.21,3.169-.806,3.983,1.375,1.345,3.61-.992,7.591-2.619,10.365-2.33,3.968-4.308,4.835-4.344,7.58-.028,2.094,3.327,5.579,4.717,5.733,2.351.26,3.414-6.87,9.717-18.762,3.981-7.509,5.811-8.918,6.272-13.606.164-1.664.841-8.555-3.306-12.563-1.924-1.859-3.018-1.293-11.382-4.835a68.977,68.977,0,0,1-6.8-3.136c-6.663-3.639-6.514-5.511-10.413-6.62-3.522-1-3.731.5-10.456.1-6.484-.384-7.059-1.827-10.057-.973-5.2,1.484-7.7,7.043-8.375,8.536a17.911,17.911,0,0,0-2.008,8.371,16.159,16.159,0,0,0,3.162,8.146c.845.861,4.274-4.1,6.142-5.97,1.832-1.83,3.913-1.08,6.748-.9,2.765.172,2.614,1.894,6.7,3.406,1.457.539,7.3-2.077,9.181,1.154,2.008,3.443,3.569,3.86,2.626,7.064-.589,2-.225,4.461.5,9.379.523,3.53-2.333,15.858-2.333,15.858a4.313,4.313,0,0,1-5.806,1.957,77.347,77.347,0,0,0-9.572-4.138A13.986,13.986,0,0,0,381.6,81.8c-1.222.747-2.477,1.583-3.471,2.338a5.05,5.05,0,0,0-1.986,4.319C376.5,93.753,378.7,106.7,392.149,106.577ZM380.584,88.194c.5-2.52,4.261-3.5,6.407-4.058a8.822,8.822,0,0,1,5.278-.187c.413.128,4.149,1.411,4.487,4.422s-3.019,5.11-3.545,5.426a8.587,8.587,0,0,1-8.37.266c-1.927-1-4.747-3.446-4.258-5.869Z" transform="translate(300.732 20.943)" fill="#1d221e"/>
      <path id="Path_61" data-name="Path 61" d="M98.131,105.6H61.839a1.8,1.8,0,0,1-1.8-1.8V57.952a1.8,1.8,0,0,1,1.8-1.8h50.31a1.8,1.8,0,0,1,1.8,1.8V91.309Z" transform="translate(48.003 43.996)" fill="#fff2cb"/>
      <path id="Path_62" data-name="Path 62" d="M97.023,75.72H81.207V89.951Z" transform="translate(64.928 59.641)" fill="#fee59c"/>
      <rect id="Rectangle_6" data-name="Rectangle 6" width="19.759" height="9.717" rx="1" transform="translate(124.216 95.519)" fill="#fee59c"/>
      <rect id="Rectangle_7" data-name="Rectangle 7" width="25.265" height="1.8" transform="translate(122.309 116.97)" fill="#fee59c"/>
      <rect id="Rectangle_8" data-name="Rectangle 8" width="25.265" height="1.8" transform="translate(122.309 127.767)" fill="#fee59c"/>
      <path id="Path_63" data-name="Path 63" d="M49.825,258.593c4.34,3.372,11.986,11.381,12.192,17.387,0,0,14.052-15.279,10.057-28.347a24.4,24.4,0,0,0-11.159-11.24s5.51-3.091,11.3,4.5c0,0-2.066-20.514-30.652-13.067,0,0-11.159-22.762-33.27-1.265,0,0,14.879-1.9,11.985,2.74a43.249,43.249,0,0,0-14.844,7.494A14.873,14.873,0,0,0,.437,247.177c-.344,5.55-.872,16.532.207,16.685,1.446.211,10.952-8.43,17.358-7.8s-14.672,19.6-14.672,19.6,4.34,16.439,6.2,16.228,8.61-4.918,5.855,0l-4.753,3.794,6.2,8.571L32.4,297.372s-6.888-18.827-.551-13.7c0,0,4.821,6.393,4.89,11.17,0,0,20.837-9.062,18.771-15.28a139.651,139.651,0,0,0-7.875-16.8,7.105,7.105,0,0,1-.861-2.974C46.7,258.206,47.116,256.486,49.825,258.593Zm-2.56-21.825c1.952-1.347,6.751-.48,8.553,3.91,1.929,4.7,1.848,9.929-.1,11.275s-7.5-.41-8.886-4.953c-1.538-5.058-1.515-8.887.436-10.233Z" transform="translate(0 172.855)" fill="#369d52"/>
      <path id="Path_64" data-name="Path 64" d="M34.045,223.157a77.167,77.167,0,0,0-6.15,8,46.849,46.849,0,0,0-4.358,9.024,100.578,100.578,0,0,0-2.871,9.642c-.831,3.268-1.626,6.532-2.288,9.829-.7,3.287-1.315,6.6-1.816,9.918s-.814,6.665-1.223,10.025A56.041,56.041,0,0,1,9.4,298.919a67.388,67.388,0,0,0,3.3-9.535,53.755,53.755,0,0,0,1.754-9.888,156.692,156.692,0,0,1,2.792-20.087c.7-3.311,1.536-6.6,2.4-9.857a80.743,80.743,0,0,1,3.061-9.7,46.988,46.988,0,0,1,4.717-9.02,66.888,66.888,0,0,1,6.62-7.681Z" transform="translate(7.515 177.521)" fill="#34a853"/>
      <path id="Path_65" data-name="Path 65" d="M29.884,229.108a48,48,0,0,0-6.689,1.926c-2.174.79-4.323,1.647-6.408,2.65-4.229,1.888-8.241,4.211-12.334,6.493.894-.757,1.827-1.466,2.752-2.19.969-.658,1.922-1.344,2.914-1.973a60.476,60.476,0,0,1,6.185-3.382,50.582,50.582,0,0,1,6.623-2.443,26.174,26.174,0,0,1,6.957-1.08ZM20.466,261.7c-1.6,1.241-3.268,2.257-4.9,3.317q-1.223.785-2.39,1.622A6.564,6.564,0,0,0,11.2,268.7a4.319,4.319,0,0,1,1.374-2.73,13.916,13.916,0,0,1,2.364-1.921A17.036,17.036,0,0,1,20.466,261.7Zm3.192-15.012a54.979,54.979,0,0,1,5.266,5.68,66.663,66.663,0,0,1,4.532,6.3,44.564,44.564,0,0,1,3.538,6.937,21.116,21.116,0,0,1,1.626,7.584,29.894,29.894,0,0,0-2.446-7.233,55.108,55.108,0,0,0-3.7-6.676c-1.3-2.2-2.779-4.285-4.255-6.378S25.207,248.755,23.658,246.691Z" transform="translate(3.561 182.279)" fill="#34a853"/>
      <path id="Path_66" data-name="Path 66" d="M4.53,283.321l5.786,5.339s5.648-5.971,6.268-1.827c0,0-.9,4.145-2,4.5,0,0,13.845,11.135,16.635,1.967a88.435,88.435,0,0,1,4.236-12.013s3.1,1.686.413,14.964c0,0,10.715-3.149,14.694-8.925a4.132,4.132,0,0,0,.7-2.3c.038-3.3.474-12.6,4.237-9.108,0,0,2.17,1.054.517,8.114,0,0,8.72-9.831,4.578-15.873A6.042,6.042,0,0,0,53.19,266.2c-2.422,1.051-6.915,2.987-15.252,6.553A166.381,166.381,0,0,1,4.53,283.321Z" transform="translate(3.622 211.494)" fill="#369d52"/>
      <path id="Path_67" data-name="Path 67" d="M15.125,325.511a33.04,33.04,0,0,1,2.848-8.756,21.273,21.273,0,0,1,2.446-3.964,9.462,9.462,0,0,1,1.681-1.667,3.524,3.524,0,0,1,2.2-.787,6.33,6.33,0,0,0-3.148,2.984,40.18,40.18,0,0,0-2.139,3.944C17.685,319.968,16.5,322.754,15.125,325.511Zm18.819-4.355a27.488,27.488,0,0,1,.734-8.1,20.767,20.767,0,0,1,1.353-3.884,6.1,6.1,0,0,1,2.735-3.054,8.3,8.3,0,0,0-1.9,3.4c-.4,1.249-.751,2.521-1.062,3.809C35.176,315.912,34.656,318.527,33.944,321.156Zm96.3-95.712s-13.914,2-1.515,11.832c0,0,3.169,2.67,13.5,5.761C142.227,243.036,148.7,214.876,130.242,225.444Z" transform="translate(12.093 177.453)" fill="#34a853"/>
      <path id="Path_68" data-name="Path 68" d="M91.081,241.982c-.258-.922-.426-1.846-.658-2.754-.29-.893-.5-1.8-.816-2.673a25.9,25.9,0,0,0-2.327-4.99,19.624,19.624,0,0,0-3.508-4.186A16.636,16.636,0,0,0,79.1,224.39a11.77,11.77,0,0,1,5.245,2.285,15.926,15.926,0,0,1,3.923,4.279,19.4,19.4,0,0,1,2.207,5.346c.253.927.348,1.889.507,2.828C91.025,240.084,91.083,241.036,91.081,241.982Z" transform="translate(63.239 178.507)" fill="#1a662e"/>
      <path id="Path_69" data-name="Path 69" d="M83.11,196.342s15.426-9.828,20.047,11.995c0,0-8.006-6.891-8.112-2.9a30.555,30.555,0,0,1,5.807,10.347,11.329,11.329,0,0,1-1.116,8.365c-1.961,3.569-5.923,10.578-6.619,10.261-.932-.425-3.153-9.434-7.164-11.5s.987,17.789.987,17.789-8.955,8.527-9.966,7.682-3.146-6.354-3.442-2.248l1.316,4.177-6.983,2.933L61.4,242.987s11.383-9.029,5.661-8.283c0,0-5.325,2.112-7.226,5.048,0,0-8.716-13.623-5.079-16.684a103.224,103.224,0,0,1,11.147-7.38,5.224,5.224,0,0,0,1.9-1.851c.513-.884.613-1.825-1.534-1.59-3.864.424-11.478,2.454-13.94,6.1,0,0-2.306-14.872,5.133-21.44A17.177,17.177,0,0,1,68.4,194.222s-2.034-4.033-8.391-1.551C60,192.671,69.211,180.745,83.11,196.342Z" transform="translate(41.566 149.661)" fill="#34a853"/>
      <path id="Path_70" data-name="Path 70" d="M87.2,213.353c-1.259-3.069-2.44-6.109-3.876-9.01a26.191,26.191,0,0,0-2.5-4.094,6.355,6.355,0,0,0-3.843-2.655,5.609,5.609,0,0,1,4.521,2.056,17.841,17.841,0,0,1,2.854,4.174,29.839,29.839,0,0,1,2.84,9.529Zm-31.686,7.342a23.192,23.192,0,0,1,2.949-4.769,22.157,22.157,0,0,1,4-4,14.713,14.713,0,0,1,5.079-2.607,9.784,9.784,0,0,1,5.623.182,12.81,12.81,0,0,0-5.353.681,17.8,17.8,0,0,0-4.644,2.664,32.2,32.2,0,0,0-4.024,3.668C57.9,217.852,56.67,219.23,55.516,220.695Z" transform="translate(44.387 157.081)" fill="#1a662e"/>
      <path id="Path_71" data-name="Path 71" d="M65.748,195.181a7.142,7.142,0,0,1,4.763-2.8,11.185,11.185,0,0,1,2.852-.076,15.964,15.964,0,0,1,2.794.575l.339.1-.139.35c-1.8,4.552-3.333,9.228-4.845,13.893-1.48,4.68-2.812,9.4-4.117,14.137q-1.882,7.119-3.523,14.3c-1.1,4.788-2.069,9.606-3.06,14.429.605-4.884,1.333-9.759,2.286-14.591.867-4.851,2.045-9.639,3.239-14.42s2.636-9.5,4.177-14.181,3.247-9.307,5.24-13.833l.2.445-1.316-.392c-.448-.085-.893-.2-1.344-.271a10.733,10.733,0,0,0-2.732-.088,7.209,7.209,0,0,0-4.814,2.425Z" transform="translate(48.621 152.809)" fill="#1a662e"/>
      <path id="Path_72" data-name="Path 72" d="M68.825,220.671a25.556,25.556,0,0,0-1.848-4.872,4.387,4.387,0,0,0-1.581-1.7,5.372,5.372,0,0,0-2.468-.46,3.637,3.637,0,0,1,2.816-.376,4.2,4.2,0,0,1,2.234,1.956A8.181,8.181,0,0,1,68.825,220.671Z" transform="translate(50.313 169.505)" fill="#1a662e"/>
      <path id="Path_73" data-name="Path 73" d="M44.615,282.553s-2.742-9.466-9.7-4.114a13.97,13.97,0,0,0-4.824,7.4c-1.255,4.531-2.341,12.741.752,24.392,0,0,7.127-9.859,12.4-13.348C49.184,292.951,53.019,283.958,44.615,282.553Z" transform="translate(23.051 220.411)" fill="#ceb56e"/>
      <path id="Path_74" data-name="Path 74" d="M43.723,341.749a11.931,11.931,0,0,0-2.7,2.781,27.189,27.189,0,0,0-2.132,3.242,62,62,0,0,0-3.432,6.981c-1.052,2.38-1.958,4.823-2.859,7.275l-2.65,7.4c.226-1.3.526-2.574.787-3.866.3-1.28.679-2.54,1.016-3.814.732-2.53,1.658-5,2.642-7.453a49.17,49.17,0,0,1,3.743-7,15.867,15.867,0,0,1,5.588-5.551ZM53.77,210.25s.232-9.868-8-6.948a13.73,13.73,0,0,0-6.815,5.539c-2.556,3.921-6.054,11.4-6.61,23.455,0,0,9.745-7.16,15.811-8.833C55,221.574,61.348,214.213,53.77,210.25Z" transform="translate(23.943 161.215)" fill="#369d52"/>
      <path id="Path_75" data-name="Path 75" d="M52.705,206.923a11.726,11.726,0,0,0-3.411,1.8,26.744,26.744,0,0,0-3.005,2.42,61.009,61.009,0,0,0-5.364,5.574c-1.715,1.938-3.312,3.98-4.9,6.032l-4.743,6.217c.6-1.161,1.273-2.283,1.909-3.429.672-1.122,1.408-2.2,2.111-3.31a78.071,78.071,0,0,1,4.752-6.268,48.428,48.428,0,0,1,5.667-5.494,15.613,15.613,0,0,1,6.988-3.544Z" transform="translate(25.008 164.542)" fill="#34a853"/>
      <path id="Path_76" data-name="Path 76" d="M79.881,282.553s2.742-9.466,9.7-4.115a13.971,13.971,0,0,1,4.824,7.4c1.255,4.531,2.341,12.741-.752,24.392,0,0-7.127-9.859-12.4-13.348C75.312,292.951,71.477,283.959,79.881,282.553Z" transform="translate(59.979 220.41)" fill="#369d52"/>
      <path id="Path_77" data-name="Path 77" d="M77.72,280a15.869,15.869,0,0,1,5.588,5.552,49.163,49.163,0,0,1,3.743,7A79.041,79.041,0,0,1,89.693,300c.337,1.274.713,2.534,1.016,3.814.262,1.291.561,2.57.788,3.866l-2.65-7.4c-.9-2.452-1.807-4.895-2.859-7.275a62,62,0,0,0-3.432-6.981,27.177,27.177,0,0,0-2.132-3.242A11.931,11.931,0,0,0,77.72,280Z" transform="translate(62.14 222.967)" fill="#34a853"/>
      <path id="Path_78" data-name="Path 78" d="M114.234,239.918S79.573,210.3,70.59,383.332M81.331,239.918S64.088,354.037,74.42,383.332m-6.574,0S55.031,331.9,39.566,339.985m30.122,28.01s11.168-191.06-20.075-159.509M83.479,383.33s12.815-51.426,28.281-43.345m-76.613-24.4s24.257-5.951,37.483,66.549M43.137,270.665s7.028,4.689,33.621,111.471m32.805-87.244S83.3,336.473,80.856,383.331" transform="translate(28.101 162.979)" fill="none" stroke="#1a662e" stroke-miterlimit="10" stroke-width="0.644"/>
      <path id="Path_79" data-name="Path 79" d="M37.679,298.76v9.621a3.334,3.334,0,0,0,3.3,3.367h66.138a3.334,3.334,0,0,0,3.3-3.367v-8.866a3.335,3.335,0,0,0-3.264-3.366l-66.138-.755a3.333,3.333,0,0,0-3.338,3.367Z" transform="translate(30.125 235.276)" fill="#ea4335"/>
      <path id="Path_80" data-name="Path 80" d="M39.433,304.481l2.352,49.656h60.166l3.909-49.656Z" transform="translate(31.528 242.542)" fill="#e17c74"/>
      <path id="Path_81" data-name="Path 81" d="M92.683,262.576c.092-4.531,9.46,3.688,9.46,3.688-5.58-25.045-23.409-14.6-23.409-14.6-16.3-18.406-26.887-5.28-26.887-5.28,7.359-2.518,9.758,2.166,9.758,2.166a19.593,19.593,0,0,0-12.686,2.529c-8.576,7.119-5.763,24.143-5.763,24.143,2.824-4.028,11.664-5.971,16.141-6.276,2.813-.188,2.319,1.194,1.562,2.248a5.689,5.689,0,0,1-1.917,1.639,112.488,112.488,0,0,0-12.915,7.88c-4.2,3.3,6.061,19.214,6.061,19.214,2.181-3.243,8.346-5.4,8.346-5.4,6.647-.574-6.5,9.156-6.5,9.156l7.611,11.966,8.094-3.009-1.573-4.812c.31-4.66,2.836,1.709,4.018,2.716S83.6,302.291,83.6,302.291s-5.992-22.832-1.32-20.279S89.629,294.9,90.72,295.43c.815.4,5.35-7.388,7.6-11.357a12.415,12.415,0,0,0,1.217-9.449,36.912,36.912,0,0,0-6.854-12.048Zm-26.141-.187c-2.985,2.47-7.577,1.1-8.312-.738s1.538-5.468,4.959-7.786c3.2-2.178,6.888-.55,7.623,1.288s-.953,4.474-4.271,7.236Z" transform="translate(34.153 192.465)" fill="#34a853"/>
      <path id="Path_82" data-name="Path 82" d="M70.256,247.3a55.848,55.848,0,0,1,1.162,8.287,38.87,38.87,0,0,1-.745,8.375,64.629,64.629,0,0,1-2.211,8.1c-.861,2.646-1.753,5.3-2.75,7.906a126.644,126.644,0,0,1-7.107,15.148,44.036,44.036,0,0,0-3.246,7.606,56.66,56.66,0,0,0-2.042,8.064,45.627,45.627,0,0,1,4.493-16.074,144.033,144.033,0,0,0,6.822-15.163c1.021-2.575,1.937-5.188,2.83-7.82s1.709-5.267,2.342-7.948a38.744,38.744,0,0,0,1.049-8.184A66.8,66.8,0,0,0,70.256,247.3Z" transform="translate(42.629 196.826)" fill="#1a662e"/>
      <path id="Path_83" data-name="Path 83" d="M74.587,253.485a21.123,21.123,0,0,1,4.37,3.928,37.237,37.237,0,0,1,3.475,4.754,43.1,43.1,0,0,1,2.721,5.211,38.926,38.926,0,0,1,1.949,5.53l-2.762-5.131c-.94-1.687-1.873-3.372-2.9-5q-1.507-2.459-3.194-4.8a45.115,45.115,0,0,0-3.666-4.49Zm-8.1,26.763a12.811,12.811,0,0,1,2.84,4.128,11.038,11.038,0,0,1,.748,2.435,3.546,3.546,0,0,1-.354,2.546,5.942,5.942,0,0,0-.52-2.315c-.3-.735-.608-1.469-.935-2.2A38.044,38.044,0,0,1,66.485,280.248ZM71,268.455l-5.884,2.227c-1.943.763-3.877,1.537-5.76,2.413a51.4,51.4,0,0,0-5.521,2.844,25.1,25.1,0,0,0-4.954,3.761,16.419,16.419,0,0,1,4.457-4.517,32.047,32.047,0,0,1,5.539-3.143A45.549,45.549,0,0,1,71,268.455Z" transform="translate(39.084 201.77)" fill="#1a662e"/>
      <path id="Path_84" data-name="Path 84" d="M107.851,241.16s13.439-20.075,30.247,3.632c0,0-13.163-3.971-11.233.869a39.117,39.117,0,0,1,12.309,9.3,14.8,14.8,0,0,1,2.978,10.637c-.511,5.335-1.648,15.874-2.647,15.867-1.338-.009-8.652-9.629-14.534-9.957s10.366,20.817,10.366,20.817-6.345,15.04-7.995,14.568-7.055-5.936-5.29-.849l3.735,4.305-6.865,7.269-13.05-8.826s9-16.946,2.518-12.979c0,0-5.3,5.393-6.066,9.937,0,0-17.49-11.668-14.706-17.295a138.238,138.238,0,0,1,9.55-14.815,7.093,7.093,0,0,0,1.333-3.214c.174-1.356-.17-2.588-2.655-1.134-4.418,2.584-12.508,9.106-13.58,14.8,0,0-10.443-16.609-4.906-28.484a22.943,22.943,0,0,1,11.74-9.093s-4.523-3.748-10.87,2.643C78.229,249.159,83.121,229.906,107.851,241.16Z" transform="translate(60.557 185.57)" fill="#ceb56e"/>
      <path id="Path_85" data-name="Path 85" d="M93.584,237.634A145.4,145.4,0,0,1,99.4,256.183c1.577,6.294,2.8,12.676,3.752,19.094a191.391,191.391,0,0,1,1.8,19.377,166.562,166.562,0,0,1-.3,19.437c-.051-6.479-.084-12.944-.595-19.389q-.613-9.67-2.058-19.258c-.855-6.4-2.086-12.748-3.47-19.058S95.534,243.81,93.584,237.634Z" transform="translate(74.824 189.096)" fill="#369d52"/>
      <path id="Path_86" data-name="Path 86" d="M99.24,243.572a30.916,30.916,0,0,0-2.9,4.31,46.951,46.951,0,0,0-2.28,4.622c-.677,1.58-1.267,3.2-1.812,4.842s-1.023,3.314-1.537,5a27.624,27.624,0,0,1,.665-5.243,29.9,29.9,0,0,1,1.619-5.057,26.3,26.3,0,0,1,2.586-4.651,15.87,15.87,0,0,1,3.664-3.825Zm5.592,26.59a13.278,13.278,0,0,1,8.554,6.265,10.879,10.879,0,0,1,1.291,3.369,29.523,29.523,0,0,0-4.343-5.4,32.868,32.868,0,0,0-5.5-4.236Z" transform="translate(72.522 193.844)" fill="#369d52"/>
      <path id="Path_87" data-name="Path 87" d="M844.171,334.674H30.783a1.8,1.8,0,1,1,0-3.6H844.171a1.8,1.8,0,1,1,0,3.6Z" transform="translate(23.173 263.805)" fill="#935550"/>
    </g>
  </g>
</svg>
